<svg xmlns="http://www.w3.org/2000/svg" viewBox="0 0 1000 300"><style>text{font-family:Arial,sans-serif;fill:#102a43}.t{font-size:20px;font-weight:bold}.s{font-size:14px}.b{fill:#fff;stroke:#17a2b8;stroke-width:3}.d{fill:#102a43}.w{fill:#fff}.a{stroke:#17a2b8;stroke-width:4;marker-end:url(#m)}</style><defs><marker id="m" markerWidth="9" markerHeight="9" refX="8" refY="3" orient="auto"><path d="M0,0L0,6L8,3z" fill="#17a2b8"/></marker></defs><rect width="1000" height="300" fill="#eff9fa"/><rect class="b" x="25" y="95" width="180" height="110" rx="14"/><text class="t" x="69" y="140">Login</text><text class="s" x="55" y="170">role = admin</text><rect class="d" x="275" y="95" width="190" height="110" rx="14"/><text class="t w" x="315" y="140">Guard</text><text class="s w" x="300" y="170">RequireAdmin</text><rect class="b" x="535" y="25" width="200" height="110" rx="14"/><text class="t" x="570" y="70">Products</text><text class="s" x="560" y="100">create · delete · stock</text><rect class="b" x="535" y="165" width="200" height="110" rx="14"/><text class="t" x="580" y="210">Orders</text><text class="s" x="565" y="240">status updates</text><rect class="b" x="805" y="95" width="160" height="110" rx="14"/><text class="t" x="840" y="140">Store</text><text class="s" x="828" y="170">operations</text><path class="a" d="M210 150H270M470 120L530 80M470 180L530 220M740 80L800 135M740 220L800 165"/></svg>
