<svg xmlns="http://www.w3.org/2000/svg" viewBox="0 0 1000 270"><style>text{font-family:Arial,sans-serif;fill:#102a43}.t{font-size:18px;font-weight:bold}.s{font-size:13px}.b{fill:#fff;stroke:#17a2b8;stroke-width:3}.a{stroke:#17a2b8;stroke-width:4;marker-end:url(#m)}</style><defs><marker id="m" markerWidth="9" markerHeight="9" refX="8" refY="3" orient="auto"><path d="M0,0L0,6L8,3z" fill="#17a2b8"/></marker></defs><rect width="1000" height="270" fill="#eff9fa"/><g transform="translate(20 75)"><rect class="b" width="160" height="105" rx="14"/><text class="t" x="35" y="43">Browse</text><text class="s" x="17" y="70">catalogue + filters</text></g><g transform="translate(215 75)"><rect class="b" width="160" height="105" rx="14"/><text class="t" x="31" y="43">Evaluate</text><text class="s" x="23" y="70">product detail</text></g><g transform="translate(410 75)"><rect class="b" width="160" height="105" rx="14"/><text class="t" x="44" y="43">Cart</text><text class="s" x="27" y="70">choose quantity</text></g><g transform="translate(605 75)"><rect class="b" width="160" height="105" rx="14"/><text class="t" x="30" y="43">Checkout</text><text class="s" x="20" y="70">total + delivery</text></g><g transform="translate(800 75)"><rect class="b" width="160" height="105" rx="14"/><text class="t" x="35" y="43">Orders</text><text class="s" x="23" y="70">track status</text></g><path class="a" d="M180 128H210M375 128H405M570 128H600M765 128H795"/></svg>
